# xmcd
#
# Track frame offsets: 
#        150
#        21654
#        45054
#        67939
#        91860
#        122552
#        141121
#        162779
#        184500
#        204025
#        225170
#        248115
#
# Disc length: 3549 seconds
#
# Revision: 6
# Processed by: cddbd v1.5.2PL0 Copyright (c) Steve Scherf et al.
# Submitted via: ExactAudioCopyFreeDBPlugin 1.0
#
DISCID=850ddb0c
DTITLE=Chris Rea - 2005 - Blue Guitars Cd 5 [Texas Blues]
DYEAR=2005
DGENRE=Blues
TTITLE0=Lone Rider
TTITLE1=Texas Blue
TTITLE2=No Wheels Blues
TTITLE3=Lone Star Boogie
TTITLE4=Blind Willie
TTITLE5=The American Way
TTITLE6=Angellina
TTITLE7=Truck Stop
TTITLE8=Weekend Down Mexico
TTITLE9=Texas Line Boogie
TTITLE10=Too Big City
TTITLE11=Houston Angel
EXTD=YEAR: 2005
EXTT0=
EXTT1=
EXTT2=
EXTT3=
EXTT4=
EXTT5=
EXTT6=
EXTT7=
EXTT8=
EXTT9=
EXTT10=
EXTT11=
PLAYORDER=
